<svg width="197" height="197" viewBox="0 0 197 197" fill="none" xmlns="http://www.w3.org/2000/svg">
<path d="M196.949 98.5036C196.949 44.1016 152.861 0 98.4746 0C44.0886 0 0 44.1016 0 98.5036C0 152.906 44.0886 197.007 98.4746 197.007C152.861 197.007 196.949 152.906 196.949 98.5036Z" fill="#383D38"/>
<path d="M160.482 78.0913C159.707 70.6089 158.04 62.3374 151.902 57.9905C147.148 54.6196 140.899 54.495 135.066 54.5019C122.735 54.5019 110.397 54.5227 98.0664 54.5296C86.206 54.5435 74.3456 54.5504 62.4851 54.5642C57.5306 54.5642 52.7145 54.1835 48.1129 56.3293C44.1617 58.1705 41.0686 61.6729 39.2072 65.5698C36.6261 70.9896 36.0864 77.1292 35.775 83.1234C35.2007 94.039 35.263 104.982 35.948 115.891C36.4532 123.851 37.7333 132.649 43.8849 137.722C49.3377 142.215 57.0324 142.436 64.1043 142.443C86.5519 142.464 109.006 142.484 131.461 142.498C134.34 142.505 137.343 142.45 140.277 142.131C146.048 141.508 151.549 139.854 155.258 135.577C159.001 131.264 159.963 125.263 160.531 119.58C161.915 105.792 161.901 91.8725 160.482 78.0913ZM85.085 117.829V79.1711L118.549 98.4966L85.085 117.829Z" fill="white"/>
</svg>
